<svg width="242" height="58" viewBox="0 0 242 58" fill="none" xmlns="http://www.w3.org/2000/svg">
<path d="M31.1562 45H0.4375V0.1875H31.1562V9.15625H9.40625V18.125H24.125V27.0938H9.40625V36.0312H31.1562V45ZM64.8438 18.1875L58.5938 24.4688C58.2812 23.5938 57.8542 22.8125 57.3125 22.125C56.7708 21.4167 56.1562 20.8229 55.4688 20.3438C54.8021 19.8646 54.0729 19.5 53.2812 19.25C52.4896 19 51.6771 18.875 50.8438 18.875C49.6771 18.875 48.5729 19.1146 47.5312 19.5938C46.5104 20.0729 45.6146 20.75 44.8438 21.625C44.0938 22.4792 43.5 23.5 43.0625 24.6875C42.625 25.875 42.4062 27.1875 42.4062 28.625C42.4062 29.7917 42.625 30.8854 43.0625 31.9062C43.5 32.9271 44.0938 33.8229 44.8438 34.5938C45.6146 35.3646 46.5104 35.9688 47.5312 36.4062C48.5729 36.8438 49.6771 37.0625 50.8438 37.0625C51.6771 37.0625 52.4792 36.9479 53.25 36.7188C54.0208 36.4896 54.7396 36.1667 55.4062 35.75C56.0938 35.3125 56.6979 34.7917 57.2188 34.1875C57.7604 33.5625 58.1979 32.875 58.5312 32.125L64.7812 38.4062C63.9896 39.5312 63.0729 40.5417 62.0312 41.4375C61.0104 42.3333 59.8958 43.0938 58.6875 43.7188C57.5 44.3438 56.2396 44.8125 54.9062 45.125C53.5938 45.4583 52.2396 45.625 50.8438 45.625C48.4896 45.625 46.2708 45.1875 44.1875 44.3125C42.125 43.4167 40.3125 42.1979 38.75 40.6562C37.2083 39.1146 35.9896 37.3125 35.0938 35.25C34.1979 33.1875 33.75 30.9792 33.75 28.625C33.75 26.0625 34.1979 23.6667 35.0938 21.4375C35.9896 19.2083 37.2083 17.2708 38.75 15.625C40.3125 13.9583 42.125 12.6458 44.1875 11.6875C46.2708 10.7292 48.4896 10.25 50.8438 10.25C52.2396 10.25 53.6042 10.4271 54.9375 10.7812C56.2917 11.1354 57.5729 11.6562 58.7812 12.3438C60.0104 13.0104 61.1354 13.8333 62.1562 14.8125C63.1979 15.7917 64.0938 16.9167 64.8438 18.1875ZM100.875 27.9688C100.875 30.4688 100.427 32.8021 99.5312 34.9688C98.6354 37.1146 97.4167 38.9792 95.875 40.5625C94.3333 42.125 92.5208 43.3646 90.4375 44.2812C88.375 45.1771 86.1562 45.625 83.7812 45.625C81.4271 45.625 79.2083 45.1771 77.125 44.2812C75.0625 43.3646 73.25 42.125 71.6875 40.5625C70.1458 38.9792 68.9271 37.1146 68.0312 34.9688C67.1354 32.8021 66.6875 30.4688 66.6875 27.9688C66.6875 25.4271 67.1354 23.0729 68.0312 20.9062C68.9271 18.7396 70.1458 16.875 71.6875 15.3125C73.25 13.7292 75.0625 12.4896 77.125 11.5938C79.2083 10.6979 81.4271 10.25 83.7812 10.25C86.1562 10.25 88.375 10.6771 90.4375 11.5312C92.5208 12.3646 94.3333 13.5625 95.875 15.125C97.4167 16.6667 98.6354 18.5312 99.5312 20.7188C100.427 22.8854 100.875 25.3021 100.875 27.9688ZM92.2812 27.9688C92.2812 26.5938 92.0521 25.3542 91.5938 24.25C91.1562 23.125 90.5521 22.1667 89.7812 21.375C89.0104 20.5625 88.1042 19.9479 87.0625 19.5312C86.0417 19.0938 84.9479 18.875 83.7812 18.875C82.6146 18.875 81.5104 19.0938 80.4688 19.5312C79.4479 19.9479 78.5521 20.5625 77.7812 21.375C77.0312 22.1667 76.4375 23.125 76 24.25C75.5625 25.3542 75.3438 26.5938 75.3438 27.9688C75.3438 29.2604 75.5625 30.4583 76 31.5625C76.4375 32.6667 77.0312 33.625 77.7812 34.4375C78.5521 35.25 79.4479 35.8958 80.4688 36.375C81.5104 36.8333 82.6146 37.0625 83.7812 37.0625C84.9479 37.0625 86.0417 36.8438 87.0625 36.4062C88.1042 35.9688 89.0104 35.3542 89.7812 34.5625C90.5521 33.7708 91.1562 32.8125 91.5938 31.6875C92.0521 30.5625 92.2812 29.3229 92.2812 27.9688ZM148.156 45H139.656V23.75C139.656 23.1667 139.542 22.6146 139.312 22.0938C139.104 21.5729 138.802 21.1146 138.406 20.7188C138.01 20.3229 137.552 20.0208 137.031 19.8125C136.51 19.5833 135.958 19.4688 135.375 19.4688C134.792 19.4688 134.24 19.5833 133.719 19.8125C133.219 20.0208 132.771 20.3229 132.375 20.7188C132 21.1146 131.698 21.5729 131.469 22.0938C131.26 22.6146 131.156 23.1667 131.156 23.75V45H122.625V23.75C122.625 23.1667 122.51 22.6146 122.281 22.0938C122.073 21.5729 121.771 21.1146 121.375 20.7188C120.979 20.3229 120.521 20.0208 120 19.8125C119.479 19.5833 118.927 19.4688 118.344 19.4688C117.76 19.4688 117.208 19.5833 116.688 19.8125C116.188 20.0208 115.74 20.3229 115.344 20.7188C114.969 21.1146 114.667 21.5729 114.438 22.0938C114.229 22.6146 114.125 23.1667 114.125 23.75V45H105.594V11.5312H107.656L109.969 14.0938C111.156 13.0938 112.458 12.3229 113.875 11.7812C115.312 11.2188 116.802 10.9375 118.344 10.9375C119.906 10.9375 121.427 11.2292 122.906 11.8125C124.406 12.3958 125.719 13.4062 126.844 14.8438C127.365 14.1354 127.958 13.5312 128.625 13.0312C129.292 12.5312 129.99 12.125 130.719 11.8125C131.469 11.5 132.24 11.2812 133.031 11.1562C133.823 11.0104 134.604 10.9375 135.375 10.9375C137.146 10.9375 138.802 11.2708 140.344 11.9375C141.906 12.6042 143.26 13.5208 144.406 14.6875C145.573 15.8333 146.49 17.1875 147.156 18.75C147.823 20.3125 148.156 21.9792 148.156 23.75V45ZM163 57.75H154.406V11.5312H156.469L159.875 15.5625C160.646 14.8333 161.49 14.1458 162.406 13.5C163.323 12.8542 164.271 12.3021 165.25 11.8438C166.25 11.3646 167.281 10.9896 168.344 10.7188C169.406 10.4479 170.479 10.3125 171.562 10.3125C173.917 10.3125 176.125 10.7396 178.188 11.5938C180.271 12.4271 182.083 13.6146 183.625 15.1562C185.188 16.6979 186.417 18.5625 187.312 20.75C188.208 22.9167 188.656 25.3229 188.656 27.9688C188.656 30.7188 188.208 33.1979 187.312 35.4062C186.417 37.5938 185.188 39.4583 183.625 41C182.083 42.5208 180.271 43.6875 178.188 44.5C176.125 45.3125 173.917 45.7188 171.562 45.7188C170.812 45.7188 170.062 45.6354 169.312 45.4688C168.583 45.3021 167.854 45.0833 167.125 44.8125C166.417 44.5208 165.708 44.1979 165 43.8438C164.312 43.4896 163.646 43.125 163 42.75V57.75ZM180.094 27.9688C180.094 26.5521 179.865 25.2812 179.406 24.1562C178.969 23.0312 178.365 22.0833 177.594 21.3125C176.823 20.5208 175.917 19.9167 174.875 19.5C173.833 19.0833 172.729 18.875 171.562 18.875C170.396 18.875 169.292 19.0833 168.25 19.5C167.229 19.9167 166.333 20.5208 165.562 21.3125C164.792 22.0833 164.177 23.0312 163.719 24.1562C163.281 25.2812 163.062 26.5521 163.062 27.9688C163.062 29.3229 163.281 30.5625 163.719 31.6875C164.177 32.8125 164.792 33.7708 165.562 34.5625C166.333 35.3542 167.229 35.9688 168.25 36.4062C169.292 36.8438 170.396 37.0625 171.562 37.0625C172.729 37.0625 173.833 36.8438 174.875 36.4062C175.917 35.9688 176.823 35.3542 177.594 34.5625C178.365 33.7708 178.969 32.8125 179.406 31.6875C179.865 30.5625 180.094 29.3229 180.094 27.9688Z" fill="white"/>
<path d="M213.188 27.0938C213.188 29.5729 212.719 31.9062 211.781 34.0938C210.844 36.2604 209.562 38.1562 207.938 39.7812C206.333 41.3854 204.438 42.6562 202.25 43.5938C200.083 44.5312 197.76 45 195.281 45C193.781 45 192.281 44.8125 190.781 44.4375V34.8125C191.448 35.2083 192.167 35.5104 192.938 35.7188C193.708 35.9271 194.49 36.0312 195.281 36.0312C196.51 36.0312 197.667 35.8021 198.75 35.3438C199.854 34.8646 200.812 34.2188 201.625 33.4062C202.438 32.5938 203.073 31.6458 203.531 30.5625C204.01 29.4792 204.25 28.3229 204.25 27.0938V0.1875H213.188V27.0938ZM228 45H219.469V11.5312H221.531L224.344 15.5C225.719 14.25 227.281 13.2917 229.031 12.625C230.781 11.9375 232.594 11.5938 234.469 11.5938H242V20.0938H234.469C233.573 20.0938 232.729 20.2604 231.938 20.5938C231.146 20.9271 230.458 21.3854 229.875 21.9688C229.292 22.5521 228.833 23.2396 228.5 24.0312C228.167 24.8229 228 25.6667 228 26.5625V45Z" fill="#1D6FB7"/>
</svg>
